<mxfile host="app.diagrams.net" modified="2023-05-25T07:16:29.945Z" agent="Mozilla/5.0 (X11; Linux x86_64) AppleWebKit/537.36 (KHTML, like Gecko) Chrome/113.0.0.0 Safari/537.36" etag="vRoCOb_qD0xLMz4vVv_P" version="21.3.3" type="device">
  <diagram id="C5RBs43oDa-KdzZeNtuy" name="Page-1">
    <mxGraphModel dx="1877" dy="462" grid="1" gridSize="10" guides="1" tooltips="1" connect="1" arrows="1" fold="1" page="1" pageScale="1" pageWidth="827" pageHeight="1169" math="0" shadow="0">
      <root>
        <mxCell id="WIyWlLk6GJQsqaUBKTNV-0" />
        <mxCell id="WIyWlLk6GJQsqaUBKTNV-1" parent="WIyWlLk6GJQsqaUBKTNV-0" />
        <mxCell id="Q4eaokF4OPRnRkY3zu9z-4" value="" style="shape=image;imageAspect=0;aspect=fixed;verticalLabelPosition=bottom;verticalAlign=top;image=data:image/png,iVBORw0KGgoAAAANSUhEUgAAAOEAAADhCAMAAAAJbSJIAAAAzFBMVEX////qLS4AdL0AcbwAb7sAbLrqKivpGBrpEBIAbrv50NAAa7kAabn72NjqJifpICHyjo/pFRfpIyT+///839/oAAD3u7v+8fH4xsb2ra785+f+9vb84eH++fn97e3weHj0+fztWlvsREX1paXrNDXzl5fA2u0AZLfS5PI3hMTvbm/609Pxg4TsSEn2srKxz+fk8fhGksulxeLvZ2frOzxvptOWvt+BstkAfMH1p6ftUVLuXl/wdXbzkpI2icalyORXm891q9bJ3u6Tt9uaAc9NAAAPqElEQVR4nO1dCXOizBYNiyxCIOBojFuIGpfEKG5IzMQt//8/vd5QQIx+GUkjz1M1VSMiucfbd+tu+97cXHHFv+EPbQFiR6FAW4K4UdPLtEWIGVXxmbYIcWNuVmmLEDPG+bRb4l9xTFuEmPFomrRFiBkvplihLUO8eNLEIm0ZYkW1KRjpZliTGDHdzrRoMCnXYc9kxCxtIWKFKTDp9qVFiWF02kLEig+N0T5oCxEnXkWGEd9pSxEnxhrD5Eu0pYgRBYNJ9yC91wWGMdIc7z9MoMK3FBfAz8DNMEafthjxARohUCFtMeJDUQRGyORfacsRG7KIoN6jLUdsyEI3ymiT1LoZPEQFMbVj9MGABBnjgbYgceFTgvwY8ZG2IHHhRUQE9SfagsSEUl1HBM155JJMuXjpcxpFRkMEtXpt/81y8WV+6QQbyIkCgsw+wewjk29cevh4MRg8RPc0WGtMpPzfeypSnQ+VN2yCjD4PUbl9lERxcukD9KYoYBNkxI+gkymORVOTepc+QG+ecZhnGOklcL04NzRGnFx8elN9wWEepGqBZe3XJ0ljBOPyM/DanJigpvtnLWq9PBi5evPiLfCmwpjEiTb9G2j6DORtjCNC44XhVSc+Rn/yOdHyGFqmIKVgM0aRhHnG8OfaWQHqVRMuf4TuCEp+f/Iu4ho4Bdu+biWP4J3vKq6gzMmlZzEAFZ0QFP0Ee8Y39cVloVz3nMxf39VP42B9cXF49OKgf2K0j4aooKdhabTgZTKab4Wpgi9KaVixqJqeEfrZzNHANV8OfuyC8C6SMerfu/aAi8RUjFGiLRDqfVGvWkd61VKhwornZvxsiGmmY59QgUxaSP7i7wXrVUxBMnNz08A6FJr+i55ppmL5/plMjfrzURIqUuJoiA5F//pEkYzcdOxmI3YYIFMgo1S/O/ixCwLxpdKt75rnfYR0rB3i0Bdg6I3SlOxRuNP3RmktTxgKQhqUWEIKC+5cY0iqyoiftMQ6J+DGNcYMLIU+kmm3lAR9FP0Exn+pKHkM07EfqgctUfLvcyaZN1JiGiLGfRPwMf0zGDcN0WPISGkI+6iUEP0TMuXmVomCnpZxqgd8TX9riSkp9OFsmx5wm0/almIq0tOKJjBm4Cd4JXE7TrVU/DYPTusHJ9YKu3FqpKJOBIYnBH/RfLf1p2Iq0tObhhT2KWMvs9FTsLgG0ZNCW9arXnqajjoRoCcKQsDislK6dAhXm8zgLyvGOGSk6NcIj4YUqKJIsa+nwpdi9CTJz6aUotULD3fS3PeqjGoM4+J3CgXwnPfPK74J4YQ1BXiXduv25YnACFoaaosA+judVXRGMG6/ufdCUdg6mwdROHzWgL2cLlzXHa4H1q+I9QPk7M5m6TidvTe2w/LJPFg5bboqoKcqHMcr7NSOS8afwx7Mhm6mvXA61uGbinnj0K/UN0BzVs6yl67CsizPO3EI+WNYgymrqm1udWR4VcX5CaF+yXKAozrNnUe4f4c1WMkKL/PH6AGMT9tR2nEhRWX9r5KdB50pq3Asx69PMJz3UycvbJmFWhz8k2TnQWsh89BqVqc4hvvTd3stoS1y7M8FOxNargqHE8utfvwI4FpazmxphS/jcUpbiVPMDzCc/uDTtr1ZzkD8a2e+rP13Z2ho/OS5Z0SrzXqQh4NT45dld1qD2XTYdXklI/O8uraibhtk4DfXPZuwP4LlZjiPIpeR2eFsNNh0bCsXgGWDLKA1WI4cQGvh8nJGzmRkDkEGH9rPDhA6yBDd32W0B+urq8hbksCfyhlFBcjw2yvotaooQF0yDziR6+BWhe2uRoeTg42SAB0CWJvZkAWM+B3PbwHUBr4E2V2tRx3724A+gvGCG/4WkW9hdQbOdMEiVUFN8dwO8P+8DIalApWZcRfTr2ULjOPjT53C70yexS/+fwAyN+drtp6uVkOC1Wo1Xc+c0WDQ6vynVNpCKlcPGGka4CBXuqAtRnywkF2rG9pyxIcV9MYy5XgfCes8dSvOSheJqZ62sJyTEvCjaPEo2ieuyrfWbPssQnVgYsAnj+AApGJnCdAom8kMrXM865xwVCCXe7rl5OxOdGm0BMkMpyQr1EPYCkrKui3rhHs7rdmqC5KgVcQXMgOBUOkmMEy0VJx3gmJhPYIJTITwsGz6AgUhKysySmR5N8zEXsisLDvJc6Jg0C3kYIXRVlh3AbK2KcjhQBbXdWWYuGZ4zp+jc+qq42czknmZnVm0SHwPa6WG64tAAh5ZaciKu9qpsTNsq10ncS50h9ZQlU8soqCmMyq78k8eWzNgmKeYMU3YTpc/VivCagpUyItZcNoj58iLvemoRMJufQE3KaMZGM4PnudBkci5XeCJWvtFkZPctZgI5OAsmjODZeJiseiCf9DjzJwlcLHfF/aXB282irYcV1zx/wb7Mpz+j9FaqBZtGeKEvVB5+tPUMaIDV6f5o3sMcp3B7EInQtEMGcvL3TUI7lET21Zn8LVCizPKeWZ0fhtDbptWg/qJ7Q5X69mX44wcx/kCKU6Xg4s2pMzglVOWxZOGgRKunnjZw27hyYPMrxJYyh/Bsn1y+QS/AbW9vriErrM4tUTkZL7rWLTl/QlaKz5zjCTHK9wwYmvYpcBernhQ7UfT5DhZUbvrk1f9qcMG3n8BqtqvoMS5zmgKg0IGVPw8rn/hMqksc4upk/SZih2Arrh2W+1ORxvbsqJu2LTg9oQpWSb9D4ukdtTjfhm2M4RL18NRPMNtSDuOdKZshuPVWWzWNOOpGqo9VHm4fmnF9ycWaiu+hx+DNVPQjHyMG1xzU8W14nv8EViLDHb78Q2jQVdl6QXL3ILsd+KG8VDszFxVjenZJ2Gg7rLK4XlncXNWZwRyBVUZUrRBP0O4jikPZ60zxK6c3Wk504WsggDETv2BokMhM58GygcObcCbDTY/4mnZnQ3aiMlm4IqirIS3im+o7GtrDeVMYPEF7saDK56L1dpBi6PfsCVbMUdfiBdcpCEbMcEzu7NNUGO5rzalwG8P1kOXUzKh7Bpln3iLniqzrosWLCAWcPXCdV1WJlsx/TsxYSrOu3C0h/5KbuC2aW4ZAgNsOQNJt6LCfDqqjuBC2H+fB2UGu5hGmrLtdEFOSL8+zllw6yUsL9ASNlbNN9UhLjOgntsyMN/RgY2YucGKlbkE/aIEAW5DGH2tp0M4IDEZHgLRJtNPYOAOkbFuDi+y5ewByOk5LuNSjRlHAPd2A5fiB3h9fN+sZQ9mXTXDgTjkJnI/xj/B3jirLnA6HIxAZ84laAOY8mzossg1g9GpJHA7Rm45XTuDjnXK9u3dhyzLbi2/pgsOuigOhw2uO03oDE6uMxvKba47JLMV0Oxsy9pyhj+7sCxsm62BM4MOyZVVElLh7y5UHvjWvZiYLFggQA7ZNgLaWANivh/Iw8JIAbdp4H0aOEGA3JabyJmeJCIHh94aBEiWEFDQ70l2yMhoIwr4AmCWB/Rt0Rb5x4ApaGezabUGg8EIAfxn0GptNp3OSb+4uOKKK6644oorrogVtx9jiKdUHK8eiaykQeRTeI4OQVbcP5E8XbgyvHxcGV4+rgwvH1eGl4/DDKsA//Tof37AeRDF8P72vfdRZ0xdmzz1CrvT5sv9AkQ/9G3c4su+g2hLxefH+UTQdaH+8pzFNKuFwu2fGwqHm+8xLD2Mm5JoagJsoSpouiH0thwNQwQIHGEK8FdCV73egbefc93Qdw+Q6vg80P5D/2+BwuHmIYbZsSlq29PWSWsA0/vme7itjh7s6vgm7A6Erj7URV1jgg8wUPvZbLHw/Ejh1OgQw78isw8hTyhmI/ut+S/ea1rEA8xm+eamVirVKhQcWoghauUkmLooARhe/1GvuWNVi+iZVyPNHnFjgQ/IUNNFAz5A3J5pTvGo4RDDiqSJ+eZjo/BaKt0Wn+uk75FOjkjEDWaEpr99bBbfI+FXz6Jp5Od378U/4AH9nk44UjxrOOxp9Ke+/0BL0t9RYDCnqA5eD+gW7Yk8z+gVfecNlsekbxu9w4bDDMPNfQlF0mamJqBhGugzh/Xqncu+FwJxIwyhTq2p7rGchjTNERv4JT6FPdCODLvSg4fRkgZfJrVTzY9mbURFpHXVA7l9Z1Y13D/AONTZ+R63pJGoTXUdZYjbA3rtD0ijOV83hFfDb4YRwI1MJWqtr44yxFrbUnrDw3TX0jL4DUQAGyK91P6/MiQ9LXeDDvck/aabTuIZ9oMMb3F814nnQceyw/zzsCP5SCjD6v1tsf/w3nj/qwVHIUlrvOz7j3TADMu1bAF8vvEe0UDxVxHJsPL+UjckWEjoJI3eMSTZt+f9cbzcqhSjmv38YCQJfZ5kfoliWHzSRTNYX/gYkr55Xn8gbIaiX/5yo27ooQIlSQxLT5JXHggQYYakf47XxkrHN/qeWBC2za58D0gOwyLJlUHlKjLNyWTSDDH0sm8BFYm4nvJncb084iSYomQ24QMSxjArYQ1J40a2VLu/vy/vxTsv+0b14Cd619chsIffFYVe/w9+QLKiRbmJzcq3nBiKh2AYk+wbVQsTXN9v01TSq0x63iXayWKIO40F+qrsMSQBTjABrYoYHKRVzDjQ9CJRDHHjxmCBu8/Ql33jWLFLaLCjDRaDiWKYjRBwnyFWHGqgi6QXmtsh2UNeKNj1IlEMGxHhe58hafMM4gXp99QLvRPoCZUshjitDvRRj2KIbxNM8p64Uxl+WD5QKyaKIfb9eqBRc3+fIcm+xQqq+IXJ7p3AtBtBojJvrBzNP6ddHWt7DEnXar2B3/J1zsNJaKDj42szSZk38ZI+Z/86wSlOkCHJvnFClvfNgM/3pnGeJeqZt+EbWLgUAs6RWFalJ0U2cdx1rQYa9zcM/CSTHC/YEqvFuddonj5D5P6qeI6CEfSXfrbYGOtQ4IhR6mt4HOzp/Or1fJzcFbOFuzdDgxksXYZkso+4v20jY1M0DFQaCgbyFKF5mL/b5upCPTBB+kHeEHTDEJFV6m8oz6HHsE/skATtcWhlRm/eIi2HGBa8wRcKLTcVIbgyIxgvN2iWgB5DEtsEoonqWPKVrqbUu8fd40MMS17ZF8zwAF4Z3cdPFPrkT9BjiPMs4W174YGRQIEuCBoo8F6gWNW8JEn5UPeqObwIr+/NItYe8foqXBsVniH/AnoANYZP+402i58f9eZk/lgg6qn8AQjNpdX+EESs1N8XevNJs/7xSXxQ+dCNvwKy1JKefrd7IDH+YA+8iwcJbCGXnyaQ1tpi4/itl4k7HNYCy4GpQo+E93xKrbA0J7FZSukY7edJlm2klOBNuY4YamJ6GqOHUQKpvyDNqa0+/wKyhjHpH7/tklFIOb8rEoT/AXIfevbhu1k8AAAAAElFTkSuQmCC;" vertex="1" parent="WIyWlLk6GJQsqaUBKTNV-1">
          <mxGeometry x="310" y="160" width="60" height="60" as="geometry" />
        </mxCell>
        <mxCell id="Q4eaokF4OPRnRkY3zu9z-5" value="GET API URL" style="rounded=0;whiteSpace=wrap;html=1;" vertex="1" parent="WIyWlLk6GJQsqaUBKTNV-1">
          <mxGeometry x="240" y="10" width="210" height="30" as="geometry" />
        </mxCell>
        <mxCell id="Q4eaokF4OPRnRkY3zu9z-10" value="" style="endArrow=classic;html=1;rounded=0;entryX=0.5;entryY=0;entryDx=0;entryDy=0;" edge="1" parent="WIyWlLk6GJQsqaUBKTNV-1" target="Q4eaokF4OPRnRkY3zu9z-4">
          <mxGeometry relative="1" as="geometry">
            <mxPoint x="340" y="60" as="sourcePoint" />
            <mxPoint x="340" y="100" as="targetPoint" />
            <Array as="points">
              <mxPoint x="340" y="140" />
            </Array>
          </mxGeometry>
        </mxCell>
        <mxCell id="Q4eaokF4OPRnRkY3zu9z-11" value="Extract data" style="edgeLabel;resizable=0;html=1;align=center;verticalAlign=middle;" connectable="0" vertex="1" parent="Q4eaokF4OPRnRkY3zu9z-10">
          <mxGeometry relative="1" as="geometry">
            <mxPoint x="10" as="offset" />
          </mxGeometry>
        </mxCell>
        <mxCell id="Q4eaokF4OPRnRkY3zu9z-12" value="Source" style="edgeLabel;resizable=0;html=1;align=left;verticalAlign=bottom;" connectable="0" vertex="1" parent="Q4eaokF4OPRnRkY3zu9z-10">
          <mxGeometry x="-1" relative="1" as="geometry" />
        </mxCell>
        <mxCell id="Q4eaokF4OPRnRkY3zu9z-15" value="Transform Data" style="rounded=1;whiteSpace=wrap;html=1;" vertex="1" parent="WIyWlLk6GJQsqaUBKTNV-1">
          <mxGeometry x="430" y="170" width="134" height="45" as="geometry" />
        </mxCell>
        <mxCell id="Q4eaokF4OPRnRkY3zu9z-19" value="" style="endArrow=classic;html=1;rounded=0;entryX=1;entryY=0.5;entryDx=0;entryDy=0;exitX=0;exitY=0.5;exitDx=0;exitDy=0;" edge="1" parent="WIyWlLk6GJQsqaUBKTNV-1" source="Q4eaokF4OPRnRkY3zu9z-15" target="Q4eaokF4OPRnRkY3zu9z-4">
          <mxGeometry width="50" height="50" relative="1" as="geometry">
            <mxPoint x="390" y="250" as="sourcePoint" />
            <mxPoint x="440" y="200" as="targetPoint" />
          </mxGeometry>
        </mxCell>
        <mxCell id="Q4eaokF4OPRnRkY3zu9z-22" value="" style="endArrow=classic;html=1;rounded=0;exitX=0.5;exitY=1;exitDx=0;exitDy=0;" edge="1" parent="WIyWlLk6GJQsqaUBKTNV-1" source="Q4eaokF4OPRnRkY3zu9z-4">
          <mxGeometry relative="1" as="geometry">
            <mxPoint x="360" y="220" as="sourcePoint" />
            <mxPoint x="340" y="300" as="targetPoint" />
          </mxGeometry>
        </mxCell>
        <mxCell id="Q4eaokF4OPRnRkY3zu9z-23" value="Export data itno DataBase" style="edgeLabel;resizable=0;html=1;align=center;verticalAlign=middle;" connectable="0" vertex="1" parent="Q4eaokF4OPRnRkY3zu9z-22">
          <mxGeometry relative="1" as="geometry" />
        </mxCell>
        <mxCell id="Q4eaokF4OPRnRkY3zu9z-24" value="" style="shape=image;imageAspect=0;aspect=fixed;verticalLabelPosition=bottom;verticalAlign=top;image=data:image/png,iVBORw0KGgoAAAANSUhEUgAAARwAAACxCAMAAAAh3/JWAAAAvVBMVEX///8AAAAzZ5Dz8/NwcHC7u7vm5ub4+PiioqLu7u4oYYz8/PyZmZnR0dGJionExMSEhISrq6sdXImPj4/a2tq0tLTU1NS8vLwgXorLy8uoqKgRWIeOpbpQUFB7e3tGRkYgISEVFxZeX150kq3j6O1oaGhPUFA0NDRXfZ7L1d63xdLf4OA8PTwnKCelt8marsLb4ehJdJmDnLQAUYJkhqWvvs1hYmETGRxLdZkARnwQEhHEz9otLi1dgqLg5u2EIZYSAAAKAElEQVR4nO2aeXuiOhSHE0FkURYRFXGv6LjWtmOno858/491T4LsuM301nuf57x/tBIgJD/OlighCIIgCIIgCIIgCIIgCIIgCIIgCIIgCIIgCIIgCIIgCIIgCIIgCIIgCIIgCIIgCIIgCIIgCIIgCHITCuPRg3gwjY4p+qIpGxIcKE6/t1pNRXtMKf2x/kHp2nQfPcJHoZl0rTuGazi2T+l4SkWr1mjUHNsIbWYpD6n80DE+Cpf6ApkcNpvN4jccGg4hh023uzlMCFl4b56n/nr+TZYr2nz0SL8egxpkV/Laqqq26576TLRXr66yI0/tCmTjlUqq6r3MiUWtR4/1qxFoi3yrlyLItq5GB6rXJZMSP/a+kyZ1Hj3aL6Y/JU/tSA1PUbxSknZJIS9cHfUFbOfRo/1iqDuJ5VC75KWUwZuQ4EN9Axc/erhfSo2S59iNvMq8nhWnVK8E8qmv5L/sV5Wla5TLLXepFZ5WmnDWqEn3dGn9IE+xON/IdzUnjvoR6JcSpzL2ff99zOhx3nXjL2f3NxgijRmajfRZRZ7GZ2d6Iuva09WFYdsD8i2WYUM8SE1pfdT2246wqASJjEY9CbSAzmfP+UYae/b0lW/qZn/MPw8SVX2jxwc3EE1TDM4OW+E50LR8vt+UOPX59mfpdfOczF717mE+J10QrH2Q6DK8j4nTqMUY8gpa/H9n8ldosqnH0VCRmQCR8fThYCTHA3fYQAdCcHRZHHmd8CRv8hsKv+2EHKIY/aJpi92CbOAaTyjH2YqJk+nKgKY7y+imYxVHiLuA5/bTLQNoCjquHOFjJlLWRtAWqHVZHINyqziJI5Ddx9ti0SWvp7b6Vnki85/BNUScRvcViMPVuW9aNqWV++4onEL+sdBks//aEIJM/hFs0chD82VxFCod6rE4O4g5m8n3SZi0vMrOe1J5nGYhJw4qReKQNaX3ReXqZ4hj5wyHdzxk/yHcrIruead0z/5fFgcSUCXyofqECaXW64uwjbWokKaYV01cGoe5QnHMe/3qU8SBoFLNtjWD4bXouQeAt+nkqjiiT0ppcXgteBKnvWP5ix9+I+PYq4rFqZ6M+WY+RRy9wHKEqlyFoANOdWY9uAxkuyKOkwg63uTQPpV7YdMHhB/1CfSrH4SkzxSKY0fvUDIcyzEy5UalYZSdcrK1mulEqbWcspsv1JaG44TpV3LLTstNpGonir5ZmheCYI9XHlfEEegyqoo9bReKEy636nPwMB5zwGlStxU8F+Icm4LUjyqfaZQoFHMUtQ54Kx0NoeoYDkf74MUr+j68oK+w02CF1nCkMM1ZOmbXuH7UST/SkFV2hbuVRdEoBCTtXRWHzGwSilM/GVF7Q+JcTp7bKnl9O1RSGbFIHCl4hRB56LhaNloW02MfGIrLqiDLbTSaRvUYZJDjagURfDWbrU12RZXXtla5ZekzFth5UOiA8YPka9HsQw0lQIoe2UZj2Syzitg8PZelK+o7eYPr5bJ4erDXxZFpnLhP4niTbZTB6jtS8kj3A+Je8q4CcYQ19yqo1H0hbKuB17PyTIOJxy/XCnOIHHcCJnGM6vrlgJZDcWQ6leL5RLWtJvJXHzzlZHJT02kkYxi8m/MbdHC9cFUchS63UeLmARlS91NyMbotkV8TKZ2ls+JoDWb87zx3pDIW1KMKN+LkMPXTYRyQ5XiqHMi1TBwrWXZTSpPeI8e2Q1xzHfnbuOpq0Q3nF5r85DVxyMoM8xWUMmzvxtsmN3XU72RLuuQ4Td1UuLaSeRbwsxe+84kkX2nzpGAsTs4QR5E4YYudsBtOPzX3Sq3TH4Qj6RmfJA4sCjbtMF1VXurtj6ThQOOBLGAa6YSQE2fk85WAmX67wRQqzHKSg9AkSUiJ08rlXCsUR49ns05foiVOhiiuHCzQV9DxPrHEysHt8Ko4BMYVhpg3gcxfD5WfqV2dty286qMP4eM9UqgwWxFWJM8yLQaLrhqr5/NvMRLHzr1jKRQn9OZlvsIc02PhhCQ7yG7TC1NXbgrIPCSfTMdbEJ1/H3NIrst30FXLaTUqlXXk5OfEySdPKXQ3lnF9vdNqxqYViSMWLY8CccL1NIjc78hJOtOzZUyNO7meiEpZDJ4UrotDoJ9AmzkTe0w2v8gu2leGmPPafj4cdhuN7K+Jo+WHo5wqQ0PvxTHzNKJbxAmlLBdFObi91um0svdyZ17x+uHcnEVezd8gTosqbCcUtFmN5SbZeD8TuTzYV/72OifL0f6qW52znABNci3bn9EwsUfimLl1hJIVx6DFO9jQxyDfWubjo2cLHSEI1jeIA4mT/C6pWwKJZrv7eGvPSbyXrG6CwbamyXmfE2eUG6mbTTKEa7E+TSzQxMrNvJUVRzqzTioXjiTYx7DouZWFyJPoTeJANQKurRyPZLJ43syJIs0jt6ofgngx0pNp6Jw4fVZapYDgqGjN5jLVOA7ySCSOkttFHGTFIczhUwiybASRNW9SciD/qtCsgvUYG+dN4rB3uafiiuqtZtPxaTMhzm9j3WhmM805cZrZoANRaMr+pMd4spS4zvEzW0EdmhOnGgfnADuY2SCX4wlXxTwNc5o7ya2txj7cJg7RDJamDBEWPiv7mBDH0+Re/vJz4rDSNjXLHp/SIBNTzCB1x+Jo6fBg01lOHHDZfbITMOjZ6T8dZJynGlbTzK6yhlURozaxwOev0avFAblN+gX75mfFYXsocT0irYJIAYFnlXA392RJiTJGgfvWclPRiNCAqc20vDhpBzJo6ME8j1WT3zf4sdQVVjUPEu9rafLLgwMQp6NIWS7/IGlsxOL8IqtcHXpJHGYrVDca0tLtsI/Bm2Gvsl9uKIKgNBxoXlfCXsSqHOy+yokM3cmn8tNEj1V3qUg1eZaQu8F20elQtOVOR9bfeQ+xHA4/Hpiy5XTsaMujJ5zEKUC8KI5YnoTiQCYvSocXxCFG/BXasBra+9JPPH0W5p0GXw29h0eW3hdF3eI1f4E40HVcK/WS3uumZzlI5zXjPXXWb/JNDjar9ImQs5tAHFuONpbbCyETB2+g4lpytWoZaftcGg6UuJ1yLRV+pEbh4rBSsDPM0GoOdO3UchlaMqyqbpq27DQLsveyXNX7fTjb4pNhm0Tnq+fLlPvRbpc3Mb7itxUtK1PE1P4gVN6DQwvSzE0I0QZY+zsZ37dp/meY2ZXn+7ny7bP485+B9lqkVGc/7nqCzPKJIzrLMlPiWfd+kfGFsG/FF93ngwbV2F2/2vhjwHT86GUqffrHVv8FtGi/Ji3LfToWrl/8KdhBNq5WbVaIFkfj/wqKvtrPROurpAEEi+2nBRWL8+/Gm/8pFUH5++9AEQRBEARBEARBEARBEARBEARBEARBEARBEARBEARBEARBEARBEARBEARBEARBEARBEARBEARBEOST+Afr5KXTLpcEYQAAAABJRU5ErkJggg==;" vertex="1" parent="WIyWlLk6GJQsqaUBKTNV-1">
          <mxGeometry x="299.89" y="380" width="80.23" height="50" as="geometry" />
        </mxCell>
        <mxCell id="Q4eaokF4OPRnRkY3zu9z-25" value="" style="shape=image;imageAspect=0;aspect=fixed;verticalLabelPosition=bottom;verticalAlign=top;image=data:image/png,iVBORw0KGgoAAAANSUhEUgAAAOEAAADhCAMAAAAJbSJIAAAAllBMVEVCi8f////v7+/u7u719fX5+fny8vL8/Pzk7fUwgsRAisc8iMb///01hMQ5hsUtgMMjfMH8+vfu9PkdesDL3OuOstne6fSGq9LS4fD3+vzR2+f49fFdmc1PkMmyy+Ofuti+1ekAdL5vn9DG1+t5p9SnxOBfms1so9F9q9S6zuGWudzi6O7X5fHT3Oekw+G50eivxNyju9jA+HK2AAAWDklEQVR4nO1diZaiuhZlEkggJIxCA5aziFbZ9/9/7iUMigUqUFjiW73vsNo0lco2IeckZ+eE40tIQgH5XFSWiJNzkVgWKWXJ5Fx0rypJkMwM+rlIFmhhj6q6tUrgnsVQlmRZChRFsQ4U4uFw/Fpf8CUfxM8D/UcOguANGZphaDqn+XwaRdGWs3MQjBBEGv3H0AzMCgixbW673UbufH7ysx805REzFLNmWao6m601jgMEY0PTNIO7D/aIhjEB9M/bWfqpqlIoyYO1ajCGsmzqln5yXY72D9Y4CB8QqwNCSJlCzKXuTLVGxVAyw8lqlWyxTYDRnVmNqQGIjXbJaqXQWUkSe7ZqQIaBP1tGxKAv2Y/JXaAhZJBoufEDOmEJ4usY6tYpQZhoQ5Kr8qSz0/qvFer09w3BUCxQqassqtRVQuctbxch/Cx2BaBmoGi9siSzVasqDEtwUonJGY+LFH3iuDEA6KnsSiCAucShtuRxQ6V6EVfvc6Vu4M4WQcg/O2tgP7nzrgGhba/3limL4u1WUchlkXQu6sZQYHVZ6Q4g7RfpFUBgm6oT+UarCoZlSW+GJu8kNv6dwVmHgcl0JtVbNRhDOVTTGA1g8n5CEsRf1rMYmvLGwC8Ynd85YmPzFIammtrg1ewK2HaqDs1QllPuVW9fE6j3Kg3KkN9oY+m/EgDM9DPFC8MGayGXmCgFJuei/DOvz5f4pdNLIyCO56ZUbSiFVDZdOhc99toEOTEeLfJeAwOlQd7Qu17bhWE5Xq993IkzmgmmDoz9nGH5XnVeW4iylP6qd9YVwPgIfsRw4iEyZoL0bSTa4QcMpQMY5xtYhQEO/Rl+ceMnSNfJdmqK/Rim5NWNbwni6mIfhl/vQpDOqV9mG4bf7OHb9CADds2b9rCkKly8tuyT8E4EOW4RZAGRDn6p+BaTzAUaJ1QZPt7FkNF7EWQunNSlD8PNmJZK7QA2HRhKzrgdmWbAYweGyXid7dsASWuGgveOBClFry1DM3q/t5ABRY0Mz5bxEgU4vpcpvIBYcsmmwnBSg+nYr25qT9grs06nwWsz3ddvivaDMT0rPe7uYkjLd7QVGZB6YXhnbaG+50zKAP/vGYJ/DP8xHD0eMBT/7xkWJbL6nj4bQ4WhcGZY99r09bvaQ7i1Gry2uuetp+/aiUax5fZobaEf39UvXahSK4aK/lAyOU5oWtv1Yfjfe86m4L/WuxhvOptCq/UuxuT0jmtgcmq7T6P+EZTo/d5ELeJ579DAsG4Pvb0gfIJ3s4mQ+Dy/8oS6PazLGLyVrvAufnWTOwK7E1nae3VBSYNf6jnso/te8ylwmZ+28ko2d9cWXpJ9Nt5pQkWGTlseui0ZGtnn4y8pgIcAREfafFE32jFU7fw1Vd+mFzWkhixgdrBbroDJrJhUjfd4F4HmZZOIOSNt1/hRIabykneYUXGS9aAgWHHrXQxcSFRlMxm9XYQ4KRRD0ga33sXQ4nzvWBClFRm3dwOIExQMzVhrZFg/qqACDqd8UaQf12NeLZKlpxdtn1AnBahKjU6D10YZQtuSypMNwXq00i+DrK2QCURZOy3M9mkavLYGz5vOoGgdXDTCXjTKboQk8vV8MZF1BMoY1j3vZoa0+82LClrZc6ObVCGIN1IpeqZt3DLj3YUht3D0i85b91x7XOYfL1LrvO1EGfoLVtqJIUdml2PXE8G03PGI2SHQmP65otU/5e9RN4YQ7S8MRVGWDq4x6CnKvoAIudaVRQidwmx3Y0jf5NWFYWZw1KnxcskwJNhVq60SRHNebrp0ZEh/YH7FUKD9ON+SV76QCGw3h+vvXdBn56HVyLDRHhaA5EMpR2kOgQ+oC2C/piMhtiNfuBwmzVolSB+XwyBAbdjVP//prFSoxp7A9ihdKVFENlhnMf51fxViI55nc9/1KVlvW22uesX+llLhKrqGsEOtzhVDUTatVcph4/ckG5qGudQpTuVdvVeHq5emX4TUnqpS7dS0bOrOB2eT3ziMaBCbc53KSecLQ8u1rzzKnjFgEK+C7wwzRXUgn9Z0vD6zKzXqE69nYiDL9dPqsuXH35vaM8qt4aXZxJDB8lNIyFNsCLCJHW8c1cx8lxpDcxLh70uC/nF8ZK/VZoYUuj7brCOMwXD+AAKEbJP5rNpj1wwlb93gR/5EqYCgKzUzpLOWZMrB55/1kgMIMPl0b6YQGgYCgNulnpdL0xvPm8mymqAms/wzLQaGzFe6ff5G1umQVTf/TReYgmiwQ34TlteEYAKIPXVT3z/o9VZVziqZh5Q0t/HRLkZh1G9qMRBIvLB8rOFkQ1EQBHK6mW3jOKYjl4JlqclwYQzLIoM9ABB9eDfbbGTLoqtzluqj1qrKqUgvuZllpNEe1tIsKHfUJgBNHVNRbuRnuJTwtD8p/NVqv1/FMO8lOnWU0IoiLV4xOHpgsTRSjxNX6Lzj3tnjBGqrrBF39TTQjnPL23DiVqxVpdNXRtYZss5VKY7Ho+/IZdHVSLxblUK7MbTSiNwzTme/9PEuxh0YOE79gDaraMX9ZrGPlRFMiyRZkoRycyVDQ1iz4csKAz+Na/bhBsO2a4tb/Qgw2HjlEvshw6zo/FC7I+a1qpTjfwA/NEdDMWQkMYinXiCbj4bWEAyVwHPjVjmMBmTIsXAIiZansPI+PYEhNUH8fL21W+ZSacnQilsbMs0GZLOygutmDcGQhZJMUd3vF7hDJpzIasVQn3baAQYkjlwvoCxleTCGkiKLK3cLAehylFxz26m++FXHDWCoYeojT1N/Tm0as9ddGX43PL6TJrFNOidSsR2pbsMaskYoVp8tbrpIBTiO17PZoRi1DQkomosyjQSz+NRJ+PPpxjEAvZbXGrHaZo1I++6MahrAmIujrzSdmWEYVhNdCrll/LaYNpnpZ4/N069NFNOVGIB9cxyANGybNaLDXNMECLFGF+b2AqcUieMX8BjpbKVplUV+stvtXLhY2HTOAv0XJRmQKrQ+y70ZZnsbIkQQArhAvKTYsf/FZZGBGIaJbYGvSdvT6jovPSVbC7zgGbVjVTgErRgeV/StGF2s6SHwXJL37dQmn0wTtRtNGKYl0E4R2jLMVF/vpk404oA2vS3DlH082O9EUbN9uiQzk/sMy10MD2WfD290JN9ADssaoaMKw7M9LKleskaotsrss+mPVqHwHQY6ZF6Dmbf8oV+qkrmcFTj2mxwmxUXAbU5a7mLgZZb8QzTFkSb5uoaB/KLlCW67AkbHvIg/vgFFw/CLpnug9Rpf46ScIR+sXxQNbY3FOjCLhVhstN/FQDNJKBZ1q1ELaRFYTcoctCfcYZ9Gi5WSIe9vX65OuAVI4lXIGp93odZlJ4okdLVcLMz1WTxKDSYE8czKCDKGCstW0kGpAMnevGzjWssRzjiGsaP8Cv0EzztsrdCo3KunWch3E+1M1lhAP8Z3d9N/HxqJj/ylgbyfvUpAbZM1oog9QexdqR5m9Yjr66CRaKbIl34KP/O5opsWA+yscyo7NoKDkzYSywFtOGO60suWj1OshDpGSLXFqkxlV9S1il+W6PoCgOOTZF7NjcdF8dV3jQFDsDKv59lgPn0cHnkmIMDJ3vrWKt+4qL66MeTg4pj1YmU8mMcv7mVSU2Rzs+P5IHrZKm9RUX11ZEi/Mncii1f3LMiydNgZL1hYGUBbZjtN3yy4WzHWPZQK0E7ofPNtG1eWvU1MftV8aIRw5cG0K4bq1YmQXlkjAP7Q5Zrqa6KbX2sO/8o2AEQYLTfntl8x/HstXG6bNeJ6mw2S3aV2pfw5QeED9bSNwVNFX2xsonj71wvMi/Erl/GyqX5f+bTMGlGLkCIjzY41XAff6Zck6QdnsyWAPGV+hQYBeLvxckmi8l3UwitpLW9Ao77023vbxJD6N9E+yEfx9TcpsjBP4GymMQZIG643NQ3RvltvNtZ5m/57oC7wt/WN+R9EuTWwnGf3adXGSlaXHjgrV0O2bfw4N7amabaNtJ3jBIJpCrdCkcdt0ybSj+L4hh07cng3cGt5znS6JvT7p6vm7rEJxORRZO26jqrouiBft+qKoQObQ5w/VCpQd9e5TKoNDAVJDkNFVWduumMSKABwTe9VRaH9ynRfEKJdSrmVEkjxe6vODGXFWd5aBPxYiwHtyC+jO/cEFPTPpq4fZxSQi+OYYxLUOsCW3Tynnehj/kRSQ7OFrCO0nOi2TzWA2kTDMPWUBwwrogd2+R/FwWmCxQLhSsCbUkhrkx9Lc0LLS7l78e9B9DSQvirsGEYpL2inibo8pFC3T2J3I16E262+LEUwQ2dJ7u+ndD5vcasjbbJ01FASvlmeelV1I1Y9unFmWDdiDa1a7cjDPfjGXYx61ogWmiiIEJf4AZ3ybosrrhURDZKPx3eH5FVJkiKeEthGZA3UVlkj2qm+ICbYdfxsJBbr5FpVva+Dq1yHaZrObIpbHkVqubY4RK1qy24qBPFsb8nMF6iOxMEu/FSs1S4GrW+vg5FVq6qJYaf8pQbG3C5dhaFuDnl5aPbRS9nypYPnAKv5S+8wlObdNFHUWNsLbecez0PkJxdPSvIkDFXfTeHCRh0dI3vfjqFs9ljcaghhbrldOV5m4KRe76E+CaSjM4uWMUZ9dhHAoa1iaNdvI4Z2JiE44qbUSZFE8VC93vgOw5BxM/UJ/SkXxHQC66u3MWK9LUPnJ2oaTTMMTKjPGbtp6lpMve4FfFjiYujDg0f/SlUT+lhMWTE3Fv5kBYZ9+cH9FsJ5aG2H2E3LXGrA7gUmkTs9wy0xjQj76+wh7YeSNgYUSY2qr/oRB3bX9NCqL60Jw/4OqEmK0HD4oznXl/yGySHJF8/7Tbm+6lOAt5dlixtXqOkxjJjPspmVJu8BQ9Gcv+Km0R9AQ5+06U5Lhiv2af5WiQXhIpPU+C0ZAp060+bmnQSYRXIE0JJhlvtMEN/oGg+c5GZCa8dQtbNUrrKZjCyyfRMkObe8HUM8zfwbebIZcJP3edC0InEX7zaqvpp2MYxDcaTusBhP7P4WtEV5Vl/FrbNGoHVeJJjO6C9kwctDsa1jrlF7pYKWr5UFMbQaogMjAgTr8g5L+Yg6REhBlDNkL+NsxMI2VOSXYXQkTusSAyafBUP6k9L2tVdx34SGt0Xbmf2e405Rbs1Q+Ut+hg0Zo/UnXDmH0vfQPLBpv0scX2NuUGlITP2rMYXBK4GMj3PTeVE+LLoy5IxdUN16OOzAmFwcA+8OFXWBECSZWeumxcDry22CrC5vOpqxisjUMatbPpN1oVTrljWCrIMyopDXpbpoBEJTCJB7kOSqjxKsC8eka9YIMlWUqz0Bc+WSVy+qMPnr88rVTgU/vWQz65g1AiwPV30uSjr/tXxhfkGEl1+XfEesVdQ/O8TnBnXOGgFRkVy5ut2u+OtWcaChAQ0A174kCVcMhclnJWTaI0Kq4a/vDCks5z/7dzWKEGHbdQ66dH0sXJRMt7o53icGDHF8bDpiHswT7rd6EiIQu/NgImdx5wpDwfyWC6tflBvEp6ZD9KasOhGwn+6Xa9gGkT/h9Yaj/dLp2wK2bxzf5o6h/J0hK9DVYzrFADzlXC+XZfEkbqpmy7968gL9WMsb21upYODECuU6Q1GWQlP13JjDQyv4NI0Jrl3vbOBqDK11fcPzB1oMgP+qJotmXxjmyXWyeVnn5zM3xmQYBV8WwYrd2So86MItXZs1a/IiG61FXS/QHMcH6MMyb6oRdF2ZHJ3VchlhltGsJzdkGABHy63jeMqEpdhoVjHovPqFmhuptskacUupADGc6RcZSD0/Q/a1Wb6/SZOFbdsEsRf0USwwe0IjhNiLxSJZJ75vheFkUmtVJdgaBql2Y4Lrk/vyCtjeqGV4966AIgxDMf36cmMGQDApUigAg2nZsoBbXoCyJ9zNhuUF1nm9yF59TxKgbuybDfz57YB0clt/ypL8gGG+3UqHGUtpZql//vz5ZBq32X6aEZp+/mFgJX+yJypffFNVFYaKl2h3vP9B7j8ENvfXN8OHDK+/eF6hhBWpmnOJp2+aIj8aDudMZ6wqf8bd7r/BGDIbjJPZ+XtvyTDbgGWTbyWOL+Zd1ophKFmfCX6Uk2e4OywRjqd/9E4My4c6aqKy2Dsd8XM3vpEr8TkMWUzZBjv/+HyGkzA8OjvQLh1WW4YtzRl1iMFy6igBc3fE5zBUJs50CVrlamN4cAvLOYCRtHfAoLGIo5kjC3Rdczdh5XUC55zhbdOaVaXrzmwZ2x02a+G66dbqkupFFd/xDkt2ckCL0rmq6qGZ6fkrAvtz7RcW9f6tKWh1/qDOk5gutLslxCLp8+6wRCw913TqzA+6PrnpTF4PnwvDYlLNk5Fb3tF1jV6uvH1sSKPZdDugGfeLqWlGlq39tN9bQZ7RrCXDsHAO9qsZfbttu2fYEm3b3n8o/+T6Q5YI2I6jOE43m33A2i1QF7qytZl7xmE+lDOdu7X5+kqZpD9PWNv7V5NV6zss5Z7SvTOYO029T0CYB2p8uK77kWF+9I/H4ylN3f+yotRgDwCWDaxT3uFGoJ3emqF0GuhiGdZoCOmiKM9ahlCeNpgWoKzIyB4Y5ndxdus7LOnLI0XvEMC/BrvDsj1DWX3yscLhAYF1g2FdqcAOSZj7sUXTHiHXDDUc3WjIGpFFBN7tmk6cmM1MGrJGlK7WICra3wLaToQbDmBzZsjMVG3HFBK9D7C9ubdyI/dljrfJLAh2hbfblaGyfA+KYHl2Rzsy5KXdq+OhLQDt3XkJ05mhLMxGLxXW0Oz+AaO7DOl6xoHjthoYskydLRk2HVYSZckdsdXQkJtx6t2H+YL9NFphG8KnfEosm96wldCUNaJ2tNX6WIyRI1q4BzMPtVz6pMFrO09D9xKp+8vRaTAhXjrnjroedQxdGSryZjEuw0EWs5Yp+tsxnIimMoOd89w/C1oW6BuYIbvkZROPYqxS+7W5vsNyEIbscxh8od+/FvAbAEaboNqqIRnSnwv8ZfzC5b8GuKXfkHd9OIa0Lt1KUYdbQwblZxupJclNrbrHsIU9rKV6WLncr+tpETDWcz2806qMYYM97JPqQTKtvWvgXztRo9HftdtbCt8nAUXzOeAC9RF89gAlfnJK4u4XpfSgh0mcnKRWx8J7rC3u16UcP9YQPPGsgkbH5vLjKElh//QMP2LIoM5TzMQzQ9OEiNgL7sPxzFDq3qohGbIb0ULnK42pqRzoxWSKGxCnG7byawg3/jrDLJmFKVl/Vn/jmN1h+YNbdDVDQ0xFlH6qlv7jVg3JMPsxNkEfj6tpGtl2pneCrVKasacgYj9g29E0mTu+rpuDtWpIhhV5gXWwUtedxpCLOJznTIBQyxRs7F+NJYeg/+U5F2IYx3HiuqkVWJLEZnlxyFQ3N7JGlHWJXeq6apZJoapqoO5XFCdCCPVIMPsfAIZhMHkF+btnUFVKrawqN+AP0hV1alVj1oh60aRb0aUqRdFzcea5MbxegjeLhycTpUVVfVvVy2tjaJWgawxVdfa8z3WVJb9zh2X/qv4x/MfwH8PXV/WP4T+G42f4P/8lz9PIqwzQAAAAAElFTkSuQmCC;" vertex="1" parent="WIyWlLk6GJQsqaUBKTNV-1">
          <mxGeometry x="300.12" y="300" width="80" height="80" as="geometry" />
        </mxCell>
        <mxCell id="Q4eaokF4OPRnRkY3zu9z-42" style="edgeStyle=orthogonalEdgeStyle;rounded=0;orthogonalLoop=1;jettySize=auto;html=1;" edge="1" parent="WIyWlLk6GJQsqaUBKTNV-1" source="Q4eaokF4OPRnRkY3zu9z-26" target="Q4eaokF4OPRnRkY3zu9z-35">
          <mxGeometry relative="1" as="geometry">
            <Array as="points">
              <mxPoint x="340" y="654" />
              <mxPoint x="250" y="654" />
            </Array>
          </mxGeometry>
        </mxCell>
        <mxCell id="Q4eaokF4OPRnRkY3zu9z-44" style="edgeStyle=orthogonalEdgeStyle;rounded=0;orthogonalLoop=1;jettySize=auto;html=1;entryX=0.5;entryY=0;entryDx=0;entryDy=0;" edge="1" parent="WIyWlLk6GJQsqaUBKTNV-1" source="Q4eaokF4OPRnRkY3zu9z-26" target="Q4eaokF4OPRnRkY3zu9z-41">
          <mxGeometry relative="1" as="geometry" />
        </mxCell>
        <mxCell id="Q4eaokF4OPRnRkY3zu9z-26" value="" style="shape=image;imageAspect=0;aspect=fixed;verticalLabelPosition=bottom;verticalAlign=top;image=data:image/png,iVBORw0KGgoAAAANSUhEUgAAASwAAACoCAMAAABt9SM9AAAAb1BMVEX///9ca8ADm+ZYZ7+t1vEAluWVyu/7+/1OX7xSYr3z9Png4vDBxuLX2uxkcsFPYb2Xn9OMls/p6/S5vuCFj8tXseixt9tHWrrU1+s9UrhBVbl8h8i93vEAlOWRmtCnrdfIzOVdbL5secPv8PfDyOPt7fxPAAADCElEQVR4nO3da1PaQACFYWlsk4ASDUgQvBb//2/ssBsZZ3oWOW2ZTer7fD3Dpe8XdxIKFxcAAAAAACCbh8sBechd4xN3j98H4/Eud41P3H0bEGIZiGUgloFYBmIZiGUgloFYBmIZiGUgloFYBmIZiGUgloFYBmIZiGUgloFYBmIZiGUglmHwsXLfWf1o6LEufwzIZe4aAICvaXWjPIVt96THcj+WiXEaHiq3m6e2f9UX/eBVlgSnW9aF0IWt7dRWdDFWYow9Kj1e96+6knu9zJLgdMtiItRhayu1TaoYKzHGWPJZJ80hVq3mgljEIhaxPkEsA7EMxDIQy0AsA7EMxDIQy0AsA7EM+hJNFbYzXqJpRnmJ5vlWie96t9RjjJUYd+GhiXHWv+qb3p+zJAAAfHkvCyls05XcVvGvYWKMt8L0sy52x8bF4iVPg5Ntq1rob4Vt1FZvYqzE2J+z5NifsyZyrOtqmynCqXKc4OdyHMMJnlinI5aBWAZiGYhlIJaBWAZiGYhlIJaBWAZiGYhlkLEOt8LkP6mPJcf3WPK+4KTqY+mUw491+zoXJmFrC7XNixgrMcZY8lnnRbwV9lOO8/nrbaYIAIAvbnatrMNWro+MF4mxPDbG+2Ry25vJtzgc26r5XbUJW3svtqa5j0eHxBiPDp0cN/GcVajX3L8st8I++C9P8MTSiGUgloFYBmIZiGUgloFYBmIZiGUgloFYBmIZssQa662wbVcJ79ez1Fa9X8/SY4y10WN/PUu+ZlV1Q7+eVWo5xsMOAPgHptqZxvLYeHjwYHF0MHCCNxDLQCwDsQzEMhDLQCwDsQzEMhDLQCwDsQzEMhDLQCzDma5n6StWh492j/R6VjuTwlbqrf9of2Is/3iczVr5FgEAOLMzfRG1/KLpov/f969yHMEXUetDaRO244fSv/iqgrEeSjnBG4hlIJaBWAZiGYhlIJaBWAZiGYhlIJaBWIYz/SxDp8f+Zxmakf4sw/pKCttUb3EsE2P8eHZijD/48ZZYr9Z5GgAAAAAAgL1f4pfb5TlnkvgAAAAASUVORK5CYII=;" vertex="1" parent="WIyWlLk6GJQsqaUBKTNV-1">
          <mxGeometry x="279.76" y="551" width="120.72" height="67.6" as="geometry" />
        </mxCell>
        <mxCell id="Q4eaokF4OPRnRkY3zu9z-27" value="" style="endArrow=classic;html=1;rounded=0;exitX=0.5;exitY=1;exitDx=0;exitDy=0;" edge="1" parent="WIyWlLk6GJQsqaUBKTNV-1" source="Q4eaokF4OPRnRkY3zu9z-24">
          <mxGeometry relative="1" as="geometry">
            <mxPoint x="310" y="450" as="sourcePoint" />
            <mxPoint x="340" y="530" as="targetPoint" />
          </mxGeometry>
        </mxCell>
        <mxCell id="Q4eaokF4OPRnRkY3zu9z-28" value="Staging table" style="edgeLabel;resizable=0;html=1;align=center;verticalAlign=middle;" connectable="0" vertex="1" parent="Q4eaokF4OPRnRkY3zu9z-27">
          <mxGeometry relative="1" as="geometry">
            <mxPoint y="80" as="offset" />
          </mxGeometry>
        </mxCell>
        <mxCell id="Q4eaokF4OPRnRkY3zu9z-29" value="Insert data into Staging table" style="rounded=0;whiteSpace=wrap;html=1;" vertex="1" parent="WIyWlLk6GJQsqaUBKTNV-1">
          <mxGeometry x="260" y="470" width="160" height="20" as="geometry" />
        </mxCell>
        <mxCell id="Q4eaokF4OPRnRkY3zu9z-35" value="" style="shape=image;imageAspect=0;aspect=fixed;verticalLabelPosition=bottom;verticalAlign=top;image=data:image/png,iVBORw0KGgoAAAANSUhEUgAAASwAAACoCAMAAABt9SM9AAAAb1BMVEX///9ca8ADm+ZYZ7+t1vEAluWVyu/7+/1OX7xSYr3z9Png4vDBxuLX2uxkcsFPYb2Xn9OMls/p6/S5vuCFj8tXseixt9tHWrrU1+s9UrhBVbl8h8i93vEAlOWRmtCnrdfIzOVdbL5secPv8PfDyOPt7fxPAAADCElEQVR4nO3da1PaQACFYWlsk4ASDUgQvBb//2/ssBsZZ3oWOW2ZTer7fD3Dpe8XdxIKFxcAAAAAACCbh8sBechd4xN3j98H4/Eud41P3H0bEGIZiGUgloFYBmIZiGUgloFYBmIZiGUgloFYBmIZiGUgloFYBmIZiGUgloFYBmIZiGUglmHwsXLfWf1o6LEufwzIZe4aAICvaXWjPIVt96THcj+WiXEaHiq3m6e2f9UX/eBVlgSnW9aF0IWt7dRWdDFWYow9Kj1e96+6knu9zJLgdMtiItRhayu1TaoYKzHGWPJZJ80hVq3mgljEIhaxPkEsA7EMxDIQy0AsA7EMxDIQy0AsA7EM+hJNFbYzXqJpRnmJ5vlWie96t9RjjJUYd+GhiXHWv+qb3p+zJAAAfHkvCyls05XcVvGvYWKMt8L0sy52x8bF4iVPg5Ntq1rob4Vt1FZvYqzE2J+z5NifsyZyrOtqmynCqXKc4OdyHMMJnlinI5aBWAZiGYhlIJaBWAZiGYhlIJaBWAZiGYhlkLEOt8LkP6mPJcf3WPK+4KTqY+mUw491+zoXJmFrC7XNixgrMcZY8lnnRbwV9lOO8/nrbaYIAIAvbnatrMNWro+MF4mxPDbG+2Ry25vJtzgc26r5XbUJW3svtqa5j0eHxBiPDp0cN/GcVajX3L8st8I++C9P8MTSiGUgloFYBmIZiGUgloFYBmIZiGUgloFYBmIZssQa662wbVcJ79ez1Fa9X8/SY4y10WN/PUu+ZlV1Q7+eVWo5xsMOAPgHptqZxvLYeHjwYHF0MHCCNxDLQCwDsQzEMhDLQCwDsQzEMhDLQCwDsQzEMhDLQCzDma5n6StWh492j/R6VjuTwlbqrf9of2Is/3iczVr5FgEAOLMzfRG1/KLpov/f969yHMEXUetDaRO244fSv/iqgrEeSjnBG4hlIJaBWAZiGYhlIJaBWAZiGYhlIJaBWIYz/SxDp8f+Zxmakf4sw/pKCttUb3EsE2P8eHZijD/48ZZYr9Z5GgAAAAAAgL1f4pfb5TlnkvgAAAAASUVORK5CYII=;" vertex="1" parent="WIyWlLk6GJQsqaUBKTNV-1">
          <mxGeometry x="200" y="696" width="110" height="61.6" as="geometry" />
        </mxCell>
        <mxCell id="Q4eaokF4OPRnRkY3zu9z-41" value="" style="shape=image;imageAspect=0;aspect=fixed;verticalLabelPosition=bottom;verticalAlign=top;image=data:image/png,iVBORw0KGgoAAAANSUhEUgAAASwAAACoCAMAAABt9SM9AAAAb1BMVEX///9ca8ADm+ZYZ7+t1vEAluWVyu/7+/1OX7xSYr3z9Png4vDBxuLX2uxkcsFPYb2Xn9OMls/p6/S5vuCFj8tXseixt9tHWrrU1+s9UrhBVbl8h8i93vEAlOWRmtCnrdfIzOVdbL5secPv8PfDyOPt7fxPAAADCElEQVR4nO3da1PaQACFYWlsk4ASDUgQvBb//2/ssBsZZ3oWOW2ZTer7fD3Dpe8XdxIKFxcAAAAAACCbh8sBechd4xN3j98H4/Eud41P3H0bEGIZiGUgloFYBmIZiGUgloFYBmIZiGUgloFYBmIZiGUgloFYBmIZiGUgloFYBmIZiGUglmHwsXLfWf1o6LEufwzIZe4aAICvaXWjPIVt96THcj+WiXEaHiq3m6e2f9UX/eBVlgSnW9aF0IWt7dRWdDFWYow9Kj1e96+6knu9zJLgdMtiItRhayu1TaoYKzHGWPJZJ80hVq3mgljEIhaxPkEsA7EMxDIQy0AsA7EMxDIQy0AsA7EM+hJNFbYzXqJpRnmJ5vlWie96t9RjjJUYd+GhiXHWv+qb3p+zJAAAfHkvCyls05XcVvGvYWKMt8L0sy52x8bF4iVPg5Ntq1rob4Vt1FZvYqzE2J+z5NifsyZyrOtqmynCqXKc4OdyHMMJnlinI5aBWAZiGYhlIJaBWAZiGYhlIJaBWAZiGYhlkLEOt8LkP6mPJcf3WPK+4KTqY+mUw491+zoXJmFrC7XNixgrMcZY8lnnRbwV9lOO8/nrbaYIAIAvbnatrMNWro+MF4mxPDbG+2Ry25vJtzgc26r5XbUJW3svtqa5j0eHxBiPDp0cN/GcVajX3L8st8I++C9P8MTSiGUgloFYBmIZiGUgloFYBmIZiGUgloFYBmIZssQa662wbVcJ79ez1Fa9X8/SY4y10WN/PUu+ZlV1Q7+eVWo5xsMOAPgHptqZxvLYeHjwYHF0MHCCNxDLQCwDsQzEMhDLQCwDsQzEMhDLQCwDsQzEMhDLQCzDma5n6StWh492j/R6VjuTwlbqrf9of2Is/3iczVr5FgEAOLMzfRG1/KLpov/f969yHMEXUetDaRO244fSv/iqgrEeSjnBG4hlIJaBWAZiGYhlIJaBWAZiGYhlIJaBWIYz/SxDp8f+Zxmakf4sw/pKCttUb3EsE2P8eHZijD/48ZZYr9Z5GgAAAAAAgL1f4pfb5TlnkvgAAAAASUVORK5CYII=;" vertex="1" parent="WIyWlLk6GJQsqaUBKTNV-1">
          <mxGeometry x="360" y="690" width="120.72" height="67.6" as="geometry" />
        </mxCell>
        <mxCell id="Q4eaokF4OPRnRkY3zu9z-45" value="Dimension table" style="rounded=0;whiteSpace=wrap;html=1;" vertex="1" parent="WIyWlLk6GJQsqaUBKTNV-1">
          <mxGeometry x="200" y="757.6" width="100" height="20" as="geometry" />
        </mxCell>
        <mxCell id="Q4eaokF4OPRnRkY3zu9z-46" value="Final_dim_table" style="rounded=0;whiteSpace=wrap;html=1;" vertex="1" parent="WIyWlLk6GJQsqaUBKTNV-1">
          <mxGeometry x="380.12" y="757.6" width="100" height="20" as="geometry" />
        </mxCell>
        <mxCell id="Q4eaokF4OPRnRkY3zu9z-52" style="edgeStyle=orthogonalEdgeStyle;rounded=0;orthogonalLoop=1;jettySize=auto;html=1;exitX=0.875;exitY=0.5;exitDx=0;exitDy=0;exitPerimeter=0;entryX=0.182;entryY=0.503;entryDx=0;entryDy=0;entryPerimeter=0;" edge="1" parent="WIyWlLk6GJQsqaUBKTNV-1" source="Q4eaokF4OPRnRkY3zu9z-49" target="Q4eaokF4OPRnRkY3zu9z-35">
          <mxGeometry relative="1" as="geometry">
            <Array as="points">
              <mxPoint x="220" y="730" />
            </Array>
          </mxGeometry>
        </mxCell>
        <mxCell id="Q4eaokF4OPRnRkY3zu9z-49" value="Inique records + old whith&lt;br&gt;updated values inserted.&lt;br&gt;and status &amp;amp; time updating" style="ellipse;shape=cloud;whiteSpace=wrap;html=1;" vertex="1" parent="WIyWlLk6GJQsqaUBKTNV-1">
          <mxGeometry x="-50" y="680" width="210" height="100" as="geometry" />
        </mxCell>
        <mxCell id="Q4eaokF4OPRnRkY3zu9z-54" style="edgeStyle=orthogonalEdgeStyle;rounded=0;orthogonalLoop=1;jettySize=auto;html=1;entryX=0.746;entryY=0.62;entryDx=0;entryDy=0;entryPerimeter=0;exitX=0.11;exitY=0.501;exitDx=0;exitDy=0;exitPerimeter=0;" edge="1" parent="WIyWlLk6GJQsqaUBKTNV-1" source="Q4eaokF4OPRnRkY3zu9z-53" target="Q4eaokF4OPRnRkY3zu9z-41">
          <mxGeometry relative="1" as="geometry" />
        </mxCell>
        <mxCell id="Q4eaokF4OPRnRkY3zu9z-53" value="Unique record inserted and&amp;nbsp;&lt;br&gt;old are updated" style="ellipse;shape=cloud;whiteSpace=wrap;html=1;" vertex="1" parent="WIyWlLk6GJQsqaUBKTNV-1">
          <mxGeometry x="580" y="683.8" width="210" height="96.2" as="geometry" />
        </mxCell>
      </root>
    </mxGraphModel>
  </diagram>
</mxfile>
